<?xml version="1.0" encoding="UTF-8" standalone="no"?>
<svg
   xmlns:dc="http://purl.org/dc/elements/1.1/"
   xmlns:cc="http://creativecommons.org/ns#"
   xmlns:rdf="http://www.w3.org/1999/02/22-rdf-syntax-ns#"
   xmlns:svg="http://www.w3.org/2000/svg"
   xmlns="http://www.w3.org/2000/svg"
   id="svg8"
   version="1.1"
   viewBox="0 0 50 50"
   height="50mm"
   width="50mm">
  <defs
     id="defs2" />
  <metadata
     id="metadata5">
    <rdf:RDF>
      <cc:Work
         rdf:about="">
        <dc:format>image/svg+xml</dc:format>
        <dc:type
           rdf:resource="http://purl.org/dc/dcmitype/StillImage" />
        <dc:title></dc:title>
      </cc:Work>
    </rdf:RDF>
  </metadata>
  <g
     transform="translate(0,-247)"
     id="layer1">
    <path
       id="path884"
       d="m 45.788629,270.51779 c 0,5.81381 -2.356494,11.07723 -6.166427,14.88719 -1.904968,1.90498 3.988759,9.13076 3.988759,9.13076 0,0 -15.824618,0.0667 -18.875836,-2.96428 -11.627528,0 -21.0535018,-9.42606 -21.0535018,-21.05367 0,-11.6276 9.4259738,-21.05366 21.0535018,-21.05366 11.62753,0 21.053504,9.42606 21.053504,21.05366 z"
       style="opacity:1;vector-effect:none;fill:none;fill-opacity:1;stroke:#ffffff;stroke-width:4.9282465;stroke-linecap:butt;stroke-linejoin:miter;stroke-miterlimit:4;stroke-dasharray:none;stroke-dashoffset:0;stroke-opacity:1;paint-order:normal" />
    <g
       id="text889"
       style="font-style:normal;font-weight:normal;font-size:71.54362488px;line-height:1.25;font-family:sans-serif;letter-spacing:0px;word-spacing:0px;fill:#ff8080;fill-opacity:1;stroke:none;stroke-width:0.53657711"
       transform="scale(1.2135543,0.82402574)"
       aria-label="!">
      <path
         id="path891"
         style="font-style:normal;font-variant:normal;font-weight:bold;font-stretch:normal;font-family:Uroob;-inkscape-font-specification:'Uroob Bold';stroke-width:0.53657711;fill:#ff8080"
         d="m 24.163846,312.30306 v 0.27947 l -1.397337,20.22644 h -4.157076 l -1.397336,-20.22644 v -0.27947 c 0,-0.65209 0.197956,-1.18773 0.593868,-1.60694 0.675379,-0.72195 1.350759,-1.08293 2.026138,-1.08293 h 1.711737 c 1.048002,0 1.85147,0.58222 2.410405,1.74667 0.139734,0.30275 0.209601,0.61715 0.209601,0.9432 z" />
    </g>
    <circle
       r="3.8900771"
       cy="280.59079"
       cx="25.105976"
       id="path894"
       style="opacity:1;vector-effect:none;fill:#ff8080;fill-opacity:1;stroke:none;stroke-width:7.74509811;stroke-linecap:butt;stroke-linejoin:miter;stroke-miterlimit:4;stroke-dasharray:none;stroke-dashoffset:0;stroke-opacity:1;paint-order:normal" />
  </g>
</svg>
